<svg xmlns="http://www.w3.org/2000/svg" width="24" height="23" viewBox="0 0 24 23">
    <path fill="#fff" fill-rule="nonzero" d="M22.164 7.294l-5.85-.42a.313.313 0 0 1-.274-.201l-2.23-5.426A1.928 1.928 0 0 0 11.998.035c-.811 0-1.5.464-1.813 1.217L7.95 6.682a.328.328 0 0 1-.274.201l-5.84.42A1.931 1.931 0 0 0 .11 8.628a1.916 1.916 0 0 0 .581 2.116l4.522 3.735a.325.325 0 0 1 .107.322l-1.378 5.641a1.906 1.906 0 0 0 .308 1.667 1.95 1.95 0 0 0 1.54.767c.371 0 .733-.112 1.03-.312l4.943-3.075a.322.322 0 0 1 .337 0l4.99 3.065c.313.21.675.322 1.042.322.562 0 1.119-.268 1.48-.723.377-.47.514-1.08.377-1.691l-1.383-5.656a.33.33 0 0 1 .107-.327l4.59-3.744c.616-.528.836-1.34.577-2.112a1.929 1.929 0 0 0-1.716-1.33zm.377 2.517l-4.58 3.74c-.45.366-.655.972-.514 1.539l1.384 5.646a.772.772 0 0 1-.147.67.72.72 0 0 1-.547.278.682.682 0 0 1-.392-.132l-5.01-3.08a1.521 1.521 0 0 0-1.598.005l-4.961 3.085a.726.726 0 0 1-.968-.176c-.093-.123-.19-.333-.103-.64l1.383-5.661a1.527 1.527 0 0 0-.508-1.53l-4.512-3.73a.74.74 0 0 1-.22-.816c.04-.112.2-.489.67-.513l5.851-.42a1.514 1.514 0 0 0 1.295-.939l2.234-5.43a.748.748 0 0 1 .704-.475c.117 0 .523.035.704.475l2.234 5.43c.22.538.718.895 1.295.939l5.86.425c.46.024.622.4.66.513.03.103.128.499-.214.797z"/>
</svg>
