<svg xmlns="http://www.w3.org/2000/svg" width="50" height="33" viewBox="0 0 50 33">
    <g fill="#000" fill-rule="nonzero">
        <path d="M40.059 20.928v-1.196l-.694 1.196zM16.081 19.732l-.692 1.196h.692zM20.623 21.444a.568.568 0 0 0 .104-.356c0-.161-.04-.285-.119-.372a.379.379 0 0 0-.291-.13.386.386 0 0 0-.246.085c-.108.083-.161.217-.161.402 0 .15.04.272.12.365.08.095.183.142.307.142a.343.343 0 0 0 .286-.136zM7.991 28.157c.104 0 .201-.03.29-.09.088-.06.133-.17.136-.331v-.178a.563.563 0 0 1-.221.079l-.11.02a.703.703 0 0 0-.22.065.22.22 0 0 0-.114.204c0 .082.023.14.069.176a.266.266 0 0 0 .17.055zM26.848 21.577a.385.385 0 0 0 .294-.113.448.448 0 0 0 .106-.318c0-.14-.036-.249-.108-.322a.39.39 0 0 0-.292-.11.392.392 0 0 0-.292.11c-.072.073-.108.18-.108.322 0 .137.036.243.106.318.071.075.17.113.294.113zM13.132 26.963c-.123 0-.218.034-.286.104a.496.496 0 0 0-.126.284h.823a.398.398 0 0 0-.127-.29.423.423 0 0 0-.284-.098zM29.024 19.609a.379.379 0 0 0-.24.078c-.104.08-.156.22-.156.416 0 .164.034.287.1.37.068.082.17.123.309.123a.375.375 0 0 0 .212-.065c.124-.078.186-.217.186-.41a.582.582 0 0 0-.11-.374.364.364 0 0 0-.3-.138zM26.847 20.296c.112 0 .198-.033.258-.097a.348.348 0 0 0 .091-.247.358.358 0 0 0-.09-.258c-.061-.063-.148-.093-.259-.093-.11 0-.196.03-.258.093a.348.348 0 0 0-.093.258c0 .1.03.183.093.247a.338.338 0 0 0 .258.097zM18.98 27.658a.682.682 0 0 0-.22.065.22.22 0 0 0-.114.204c0 .082.024.14.07.176a.262.262 0 0 0 .167.055c.105 0 .2-.03.29-.091.088-.06.133-.169.136-.33v-.178a.501.501 0 0 1-.222.078l-.108.021zM27.006 27.658a.666.666 0 0 0-.22.065.22.22 0 0 0-.114.204c0 .082.024.14.07.176a.263.263 0 0 0 .168.055c.103 0 .2-.03.29-.091.088-.06.133-.169.136-.33v-.178a.53.53 0 0 1-.222.078l-.108.021zM31.766 27.067a.496.496 0 0 0-.128.284h.824a.402.402 0 0 0-.128-.29.421.421 0 0 0-.283-.098c-.123 0-.218.034-.285.104zM44.313 21.58a.342.342 0 0 0 .286-.136.562.562 0 0 0 .105-.356c0-.161-.04-.285-.12-.372a.376.376 0 0 0-.291-.13.382.382 0 0 0-.246.085c-.107.083-.16.217-.16.402 0 .15.039.272.12.365.08.095.184.142.306.142zM4.74 21.322c.052.17.16.255.322.255.161 0 .267-.085.318-.255.044-.144.065-.357.072-.612 0-.042.005-.074.005-.119 0-.334-.025-.582-.075-.743-.05-.16-.156-.24-.319-.24-.162 0-.268.079-.321.24-.054.16-.079.41-.079.743 0 .164.008.308.022.432.01.117.028.218.055.3z"/>
        <path d="M1.943 32.068c.432.204.91.328 1.419.328H46.422c.907 0 1.728-.368 2.334-.962a3.416 3.416 0 0 0 1.028-2.442V3.947c0-.959-.397-1.823-1.028-2.442a3.33 3.33 0 0 0-2.334-.963H3.362C1.508.542 0 2.071 0 3.947v25.045c0 1.36.8 2.531 1.943 3.076zm2.16-11.477c0-.458.072-.812.214-1.06.142-.25.39-.374.744-.374.353 0 .601.125.743.373.13.227.193.551.204.951 0 .039.01.068.01.11 0 .457-.072.81-.214 1.057-.142.248-.39.372-.743.372-.354 0-.602-.124-.744-.372a1.496 1.496 0 0 1-.148-.416 2.941 2.941 0 0 1-.065-.64zm26.02-11.118c0-2.53 2.06-4.59 4.591-4.59.998 0 1.916.33 2.67.872a4.533 4.533 0 0 1 2.84-1.016 4.53 4.53 0 0 1 3.94 2.294c.391.674.632 1.446.632 2.28a4.579 4.579 0 0 1-4.572 4.574 4.531 4.531 0 0 1-2.645-.858c-.789.636-1.775 1.034-2.865 1.034-1.482 0-2.786-.717-3.626-1.809a4.514 4.514 0 0 1-.814-1.676 4.466 4.466 0 0 1-.15-1.105zm-.864 17.648c-.041-.089-.12-.132-.238-.132-.137 0-.228.044-.275.132a.512.512 0 0 0-.038.225v1.101h-.486v-1.826h.465v.267a.764.764 0 0 1 .168-.203.574.574 0 0 1 .361-.108c.138 0 .253.03.34.092.067.056.122.13.156.22a.617.617 0 0 1 .234-.237.707.707 0 0 1 .568-.029.533.533 0 0 1 .316.401c.012.06.017.151.017.27l-.003 1.154h-.49v-1.166a.38.38 0 0 0-.034-.17c-.042-.084-.12-.128-.234-.128-.133 0-.224.055-.275.165a.526.526 0 0 0-.039.209v1.09h-.482v-1.09a.589.589 0 0 0-.031-.237zm.037-6.173a.725.725 0 0 1-.377.092.857.857 0 0 1-.588-.228c-.171-.153-.257-.373-.257-.66 0-.297.086-.539.258-.723a.869.869 0 0 1 .669-.276c.423 0 .712.186.87.56.09.212.133.491.133.837 0 .336-.042.615-.129.84-.164.427-.463.64-.9.64a.913.913 0 0 1-.56-.184.73.73 0 0 1-.286-.539h.543a.34.34 0 0 0 .104.2c.055.051.13.075.225.075.178 0 .305-.099.378-.299a1.7 1.7 0 0 0 .074-.48.51.51 0 0 1-.157.145zm-3.262-.764a.835.835 0 0 1-.06-.292c0-.203.076-.374.228-.517.152-.142.367-.212.644-.212s.492.07.645.212a.679.679 0 0 1 .228.517c0 .09-.02.187-.061.292-.04.104-.128.194-.262.27.137.076.24.178.31.304a.872.872 0 0 1 .105.423.79.79 0 0 1-.26.597c-.172.163-.414.245-.725.245-.31 0-.546-.082-.705-.245a.822.822 0 0 1-.24-.597c0-.155.035-.296.106-.423a.668.668 0 0 1 .308-.285.643.643 0 0 1-.261-.29zM27.259 27a.502.502 0 0 0-.233-.044c-.114 0-.197.03-.243.085a.34.34 0 0 0-.068.168h-.462a.705.705 0 0 1 .134-.394c.127-.16.345-.242.654-.242.201 0 .38.04.537.119.156.08.234.23.234.45v.84c0 .057 0 .129.003.212a.282.282 0 0 0 .029.127c.016.022.039.041.071.057v.07h-.52a.477.477 0 0 1-.03-.105 1.076 1.076 0 0 1-.013-.111.973.973 0 0 1-.23.183.688.688 0 0 1-.351.09.611.611 0 0 1-.413-.14.504.504 0 0 1-.163-.403c0-.225.087-.387.262-.488.096-.055.238-.093.423-.117l.164-.02a.83.83 0 0 0 .192-.042c.068-.028.102-.074.102-.135 0-.08-.027-.132-.08-.16zm-1.914.111c-.047-.093-.136-.14-.266-.14-.161 0-.271.068-.332.206a.708.708 0 0 0-.046.278v.99h-.48V26.62h.464v.267a.797.797 0 0 1 .173-.203.602.602 0 0 1 .373-.11c.189 0 .342.048.462.148.12.099.18.264.18.492v1.233h-.49v-1.112a.497.497 0 0 0-.038-.223zm-2.658.97c.02.019.076.027.175.027h.047l.048-.004v.358l-.227.008c-.226.008-.38-.032-.463-.117-.054-.055-.081-.14-.081-.254v-1.127h-.256v-.34h.256v-.51h.474v.51h.297v.34h-.297v.968c-.002.076.007.122.027.141zm.093-7.374a3.877 3.877 0 0 0-.211.631 2.623 2.623 0 0 0-.094.614h-.566c.017-.499.18-1.015.49-1.553.201-.333.369-.565.504-.696H21.52l.007-.49h1.96v.427c-.083.08-.196.223-.341.43a3.62 3.62 0 0 0-.366.637zm-7.797.646v-.475l1.02-1.684h.614v1.734h.313v.426h-.314v.598h-.534v-.598h-1.099zm1.248 4.618h.517v2.03h1.237v.445H16.23v-2.475zm1.215-4.16c-.168-.142-.264-.343-.283-.603h.543c.022.119.064.21.124.274.061.064.15.096.266.096a.363.363 0 0 0 .31-.142.576.576 0 0 0 .106-.358.633.633 0 0 0-.1-.36c-.066-.097-.17-.146-.31-.146a.524.524 0 0 0-.172.025.344.344 0 0 0-.193.17l-.49-.023.195-1.533h1.527v.463h-1.134l-.1.606c.086-.055.15-.092.198-.109a.827.827 0 0 1 .288-.043c.23 0 .43.076.6.23.171.155.256.378.256.674 0 .256-.083.485-.247.688-.164.201-.41.301-.738.301a.961.961 0 0 1-.646-.21zM19.233 27a.5.5 0 0 0-.232-.044c-.114 0-.197.03-.244.085a.332.332 0 0 0-.068.168h-.461a.705.705 0 0 1 .134-.394c.127-.16.346-.242.654-.242.201 0 .38.04.537.119.156.08.235.23.235.45v.84c0 .057 0 .129.003.212a.282.282 0 0 0 .029.127c.016.022.039.041.071.057v.07h-.52a.61.61 0 0 1-.043-.216.973.973 0 0 1-.23.183.69.69 0 0 1-.352.09.615.615 0 0 1-.413-.14.503.503 0 0 1-.162-.403c0-.225.087-.387.262-.488.096-.055.238-.093.423-.117l.165-.02a.809.809 0 0 0 .19-.042c.068-.033.102-.078.102-.138-.001-.077-.027-.13-.08-.157zm.322-5.415c-.13-.229-.193-.523-.193-.885 0-.212.009-.384.026-.517.033-.237.094-.433.186-.59a.945.945 0 0 1 .31-.323.832.832 0 0 1 .46-.124c.259 0 .464.066.618.199.153.132.239.308.259.527h-.542a.27.27 0 0 0-.053-.147c-.058-.087-.147-.13-.266-.13-.178 0-.305.099-.379.298-.04.11-.069.271-.085.486a.61.61 0 0 1 .236-.176.784.784 0 0 1 .306-.055c.247 0 .449.084.606.251a.9.9 0 0 1 .236.641c0 .26-.076.488-.23.686-.155.198-.396.297-.721.297-.35 0-.608-.145-.774-.438zm1.66 6.263c-.045-.028-.212-.076-.503-.144-.207-.052-.353-.117-.438-.193a.421.421 0 0 1-.128-.329.57.57 0 0 1 .2-.437c.133-.121.32-.183.56-.183.229 0 .415.046.56.138.144.092.226.247.247.471h-.478a.285.285 0 0 0-.052-.145c-.054-.065-.143-.097-.269-.097-.104 0-.178.017-.223.049-.045.033-.067.071-.067.115 0 .055.024.094.07.118.048.026.214.07.5.133.19.045.334.112.428.204a.461.461 0 0 1 .142.344.557.557 0 0 1-.203.444c-.135.114-.345.171-.627.171-.288 0-.502-.06-.638-.182a.592.592 0 0 1-.207-.464h.486c.01.084.032.144.066.18.059.065.17.096.331.096.095 0 .17-.014.225-.042.056-.026.084-.07.084-.125a.136.136 0 0 0-.067-.122zm-8.317.205c.074.045.16.068.264.068a.406.406 0 0 0 .267-.084.38.38 0 0 0 .098-.127h.488a.6.6 0 0 1-.178.331c-.164.178-.393.267-.689.267a.997.997 0 0 1-.644-.225c-.186-.15-.28-.394-.28-.732 0-.317.084-.56.253-.73a.886.886 0 0 1 .654-.252c.16 0 .303.028.43.085a.725.725 0 0 1 .317.27.919.919 0 0 1 .146.379c.014.085.019.206.016.364h-1.333c.006.181.072.31.191.386zm-.442-8.133a.61.61 0 0 1-.145.414.495.495 0 0 1-.191.144c.05 0 .12.042.213.128.14.13.208.305.208.529a.894.894 0 0 1-.244.62c-.162.177-.403.265-.721.265-.392 0-.665-.128-.819-.384a1.145 1.145 0 0 1-.134-.536h.536c0 .11.018.203.053.275.066.134.186.2.361.2a.4.4 0 0 0 .28-.109c.08-.074.118-.179.118-.317 0-.183-.074-.304-.221-.365a1.111 1.111 0 0 0-.397-.053v-.39c.176-.004.3-.02.37-.054.082-.036.126-.108.153-.195.012-.041.03-.078.03-.13a.37.37 0 0 0-.093-.259.342.342 0 0 0-.26-.1c-.129 0-.224.042-.284.124a.511.511 0 0 0-.087.327h-.509c.005-.137.03-.268.072-.392a.89.89 0 0 1 .21-.3.741.741 0 0 1 .253-.15 1.09 1.09 0 0 1 .362-.051c.265 0 .48.068.642.205a.676.676 0 0 1 .233.495c.002.022.011.037.011.059zm-1.054 7.19c-.043-.084-.12-.128-.236-.128-.132 0-.223.055-.273.165a.51.51 0 0 0-.04.21v1.09h-.48v-1.09a.606.606 0 0 0-.035-.237c-.04-.09-.118-.133-.236-.133-.137 0-.228.044-.276.133a.512.512 0 0 0-.038.225v1.1h-.485V26.62h.465v.267a.764.764 0 0 1 .168-.203.576.576 0 0 1 .36-.108c.14 0 .254.03.34.092.07.056.122.13.157.22a.627.627 0 0 1 .233-.237.705.705 0 0 1 .568-.029.541.541 0 0 1 .317.401c.011.06.017.151.017.27l-.004 1.154h-.49v-1.166a.353.353 0 0 0-.032-.17zm22.28-7.37a.344.344 0 0 0-.28-.117c-.165 0-.278.063-.338.186a.934.934 0 0 0-.061.34h-.53c.008-.236.052-.427.129-.572.145-.278.403-.415.775-.415.294 0 .527.08.702.243.173.163.26.378.26.647a.879.879 0 0 1-.185.548 1.877 1.877 0 0 1-.397.354l-.218.156a4.808 4.808 0 0 0-.281.21.634.634 0 0 0-.128.151h1.212v.482h-1.9c.004-.2.047-.382.127-.546.078-.186.261-.381.552-.588.25-.18.415-.31.489-.388a.573.573 0 0 0 .17-.397.445.445 0 0 0-.099-.294zm-1.202 6.914a.715.715 0 0 1 .316.27.908.908 0 0 1 .148.379c.012.085.018.206.014.364h-1.333c.007.182.071.312.192.386a.49.49 0 0 0 .264.07.406.406 0 0 0 .266-.085.394.394 0 0 0 .1-.127h.487a.602.602 0 0 1-.177.33c-.164.179-.394.268-.688.268a.999.999 0 0 1-.645-.225c-.186-.15-.278-.394-.278-.732 0-.317.083-.56.251-.73a.888.888 0 0 1 .656-.252c.158-.001.301.027.427.084zm-.858-4.703h-.56v-1.915h-.651v-.37a2.32 2.32 0 0 0 .36-.036c.11-.024.2-.072.267-.144a.467.467 0 0 0 .108-.2.44.44 0 0 0 .02-.11h.456v2.775zm6.287-1.168a1.111 1.111 0 0 0-.397-.053v-.39c.175-.004.3-.02.37-.053.122-.055.182-.162.182-.326a.366.366 0 0 0-.093-.258.34.34 0 0 0-.26-.1c-.129 0-.223.04-.283.123a.517.517 0 0 0-.087.327h-.508c.004-.137.029-.268.07-.391a.89.89 0 0 1 .21-.301.741.741 0 0 1 .254-.15c.098-.034.219-.051.36-.051.266 0 .48.068.644.205.162.137.243.32.243.553 0 .163-.05.302-.145.413a.486.486 0 0 1-.192.144c.05 0 .121.043.215.128.14.13.208.306.208.529 0 .234-.081.44-.244.619-.162.177-.403.267-.722.267-.392 0-.666-.129-.818-.386a1.119 1.119 0 0 1-.133-.536h.535c0 .112.018.203.054.276.066.134.187.201.36.201a.4.4 0 0 0 .28-.11c.08-.074.12-.178.12-.317-.002-.18-.077-.301-.223-.363zm2.998.144v.426h-.315v.598h-.534v-.598h-1.097v-.476l1.02-1.684h.614v1.734h.312zm1.483-.208c-.065-.098-.169-.147-.31-.147a.514.514 0 0 0-.171.025.346.346 0 0 0-.195.17l-.488-.023.195-1.533h1.527v.463h-1.135l-.099.606c.085-.055.15-.092.197-.109a.834.834 0 0 1 .288-.043c.23 0 .43.076.6.23.17.155.255.378.255.674 0 .256-.082.485-.245.688-.163.202-.41.301-.738.301-.265 0-.482-.07-.65-.211-.17-.142-.266-.342-.284-.603h.542a.52.52 0 0 0 .125.274c.062.064.151.097.267.097a.364.364 0 0 0 .31-.143.592.592 0 0 0 .106-.36.603.603 0 0 0-.097-.356zm2.81-.845h-.544a.277.277 0 0 0-.052-.147c-.058-.087-.148-.13-.267-.13-.177 0-.305.098-.379.298-.04.11-.069.271-.084.486a.602.602 0 0 1 .235-.176.792.792 0 0 1 .307-.056c.245 0 .447.084.605.252a.9.9 0 0 1 .237.64c0 .26-.078.487-.232.686-.155.198-.394.297-.72.297-.35 0-.608-.146-.773-.438-.13-.229-.194-.523-.194-.885 0-.212.01-.384.027-.517.031-.237.094-.432.186-.59a.948.948 0 0 1 .311-.324.833.833 0 0 1 .461-.123c.257 0 .464.066.616.198a.766.766 0 0 1 .26.529zm-35.8-.712c.294 0 .527.08.7.243.175.163.262.378.262.647 0 .205-.061.388-.184.548-.08.104-.21.22-.39.348l-.008.005-.218.156a5.15 5.15 0 0 0-.282.21.634.634 0 0 0-.127.151h1.211v.482h-1.9c.004-.186.045-.355.115-.511l.012-.036c.078-.185.26-.381.552-.588.25-.18.414-.31.487-.388a.57.57 0 0 0 .17-.397.446.446 0 0 0-.096-.293.342.342 0 0 0-.279-.117c-.166 0-.279.063-.338.186a.9.9 0 0 0-.061.34h-.531c.009-.236.051-.427.128-.572a.722.722 0 0 1 .264-.272c.05-.03.11-.048.168-.068.105-.035.208-.074.344-.074zm-3.972 9.284h-.482v-2.475h.542l.983 1.726v-1.726h.482v2.475h-.517l-1.007-1.756v1.756h-.001zm1.659-6.495V20.037h-.654v-.37c.172-.008.292-.02.36-.036.11-.024.2-.072.268-.144a.476.476 0 0 0 .106-.2.451.451 0 0 0 .021-.11h.457v2.776h-.316l-.242-.001zm-1.794-8.673v-1.766h1.773v1.807H5.297c0-.015-.004-.027-.004-.04zm1.773 2.361a2.48 2.48 0 0 1-1.573-1.39h1.573v1.39zm.93-1.39h1.533v1.504H7.996v-1.505zm2.462 0h1.574a2.482 2.482 0 0 1-1.574 1.39v-1.39zm1.773-.97c0 .014-.003.025-.003.04H10.46v-1.807h1.772v1.766zm-2.237-2.697h-.465v2.736H7.996V8.814h1.761a2.47 2.47 0 0 1 2.36 1.768H9.993v.001zm-2.928 0H5.408a2.469 2.469 0 0 1 1.658-1.654v1.654zm.47 16.89c.096-.055.238-.094.424-.118l.164-.02a.736.736 0 0 0 .191-.042c.069-.03.104-.075.104-.135 0-.076-.026-.127-.079-.156a.5.5 0 0 0-.232-.044c-.114 0-.196.03-.244.085a.34.34 0 0 0-.068.168h-.461a.698.698 0 0 1 .135-.394c.126-.16.345-.242.653-.242.201 0 .38.04.537.119.156.08.235.23.235.45v.84c0 .057 0 .128.003.212.004.061.013.105.029.127a.184.184 0 0 0 .07.056v.07h-.52a.477.477 0 0 1-.03-.104 1.399 1.399 0 0 1-.013-.111.973.973 0 0 1-.23.183.69.69 0 0 1-.351.09.615.615 0 0 1-.414-.14.503.503 0 0 1-.162-.403c-.002-.228.085-.392.26-.492z"/>
        <path d="M31.986 11.887a3.633 3.633 0 0 0 2.728 1.246c.78 0 1.5-.25 2.094-.668H38.346c.011-.009.018-.021.03-.03.249-.2.477-.423.671-.675H36.37a4.915 4.915 0 0 1-.294-.546h3.322c.12-.224.218-.46.294-.706H35.829c-.016-.056-.039-.11-.051-.168-.035-.144-.05-.294-.067-.442H39.833c.024-.182.055-.364.055-.553 0-.052-.014-.1-.017-.153h-4.209c.006-.202.03-.4.06-.593H39.81a4.049 4.049 0 0 0-.207-.706h-3.705c.07-.212.151-.414.25-.61H39.293c-.065-.106-.152-.196-.223-.296-.102-.139-.193-.287-.314-.411h-2.173c.042-.055.09-.107.132-.16a3.643 3.643 0 0 0-2-.603 3.664 3.664 0 0 0-3.66 3.66 3.6 3.6 0 0 0 .93 2.414z"/>
    </g>
</svg>
